Footloose (2011) 1080p MKV x264 AC3+DTS Eng NL Subs
.
[IMG]http://img43.imageshack.us/img43/8462/fl2012.jpg[/IMG]
.
Verenigde Staten
Komedie / Muziek
113 minuten

geregisseerd door Craig Brewer
met Julianne Hough, Kenny Wormald en Dennis Quaid

Ariel Moore (Julianne Hough) is een meisje uit een klein dorpje op het platteland. Wanneer ze verliefd wordt op nieuwkomer Ren MacCormack (Kenny Wormald), ontdekt hij dat het in het dorp verboden is om harde muziek te draaien en om te dansen. Een tragisch ongeval was daar de oorzaak van. Ren komt al gauw oog in oog te staan met Ariels vader, dominee Shaw Moore (Dennis Quaid), in zijn pogingen om weer leven in de brouwerij te brengen.

Vanaf 28 februari te huur
Vanaf 7 maart te koop op DVD en Blu-Ray
. 
http://www.moviemeter.nl/film/73749
.
PLOT
.
City kid Ren MacCormack moves to a small town where rock 'n' roll and dancing have been banned, and his rebellious spirit shakes up the populace. 
. 
http://www.imdb.com/title/tt1068242/
.
INFO
.
Format                           : Matroska
Format version                   : Version 2
File size                        : 11.0 GiB
Duration                         : 1h 53mn
Overall bit rate                 : 13.9 Mbps
Encoded date                     : UTC 2012-02-07 23:04:33
Writing application              : mkvmerge v5.2.1 ('A Far Off Place') built on Jan  2 2012 23:21:10
Writing library                  : libebml v1.2.3 + libmatroska v1.3.0

Video
ID                               : 1
Format                           : AVC
Format/Info                      : Advanced Video Codec
Format profile                   : High@L4.1
Format settings, CABAC           : Yes
Format settings, ReFrames        : 5 frames
Codec ID                         : V_MPEG4/ISO/AVC
Duration                         : 1h 53mn
Bit rate                         : 11.8 Mbps
Width                            : 1 920 pixels
Height                           : 824 pixels
Display aspect ratio             : 2.35:1
Frame rate                       : 23.976 fps
Color space                      : YUV
Chroma subsampling               : 4:2:0
Bit depth                        : 8 bits
Scan type                        : Progressive
Bits/(Pixel*Frame)               : 0.311
Stream size                      : 9.11 GiB (83%)
Writing library                  : x264 core 120 r2146 bcd41db
Encoding settings                : cabac=1 / ref=5 / deblock=1:-1:-1 / analyse=0x3:0x113 / me=umh / subme=7 / psy=1 / psy_rd=1.00:0.15 / mixed_ref=1 / me_range=16 / chroma_me=1 / trellis=1 / 8x8dct=1 / cqm=0 / deadzone=21,11 / fast_pskip=1 / chroma_qp_offset=-3 / threads=6 / sliced_threads=0 / nr=0 / decimate=1 / interlaced=0 / bluray_compat=0 / constrained_intra=0 / bframes=3 / b_pyramid=2 / b_adapt=2 / b_bias=0 / direct=1 / weightb=1 / open_gop=0 / weightp=2 / keyint=250 / keyint_min=23 / scenecut=40 / intra_refresh=0 / rc_lookahead=40 / rc=2pass / mbtree=1 / bitrate=11788 / ratetol=1.0 / qcomp=0.60 / qpmin=0 / qpmax=69 / qpstep=4 / cplxblur=20.0 / qblur=0.5 / ip_ratio=1.40 / aq=1:1.00
Language                         : English
Default                          : Yes
Forced                           : No

Audio #1
ID                               : 2
Format                           : DTS
Format/Info                      : Digital Theater Systems
Codec ID                         : A_DTS
Duration                         : 1h 53mn
Bit rate mode                    : Constant
Bit rate                         : 1 510 Kbps
Channel(s)                       : 6 channels
Channel positions                : Front: L C R, Side: L R, LFE
Sampling rate                    : 48.0 KHz
Bit depth                        : 24 bits
Compression mode                 : Lossy
Stream size                      : 1.20 GiB (11%)
Title                            : DTS
Language                         : English
Default                          : Yes
Forced                           : No

Audio #2
ID                               : 3
Format                           : AC-3
Format/Info                      : Audio Coding 3
Mode extension                   : CM (complete main)
Codec ID                         : A_AC3
Duration                         : 1h 53mn
Bit rate mode                    : Constant
Bit rate                         : 640 Kbps
Channel(s)                       : 6 channels
Channel positions                : Front: L C R, Side: L R, LFE
Sampling rate                    : 48.0 KHz
Bit depth                        : 16 bits
Compression mode                 : Lossy
Stream size                      : 519 MiB (5%)
Title                            : AC3
Language                         : English
Default                          : No
Forced                           : No

Text #1
ID                               : 4
Format                           : UTF-8
Codec ID                         : S_TEXT/UTF8
Codec ID/Info                    : UTF-8 Plain Text
Language                         : Dutch
Default                          : No
Forced                           : No

Text #2
ID                               : 5
Format                           : UTF-8
Codec ID                         : S_TEXT/UTF8
Codec ID/Info                    : UTF-8 Plain Text
Language                         : English
Default                          : No
Forced                           : No
.
Enjoy
